<mxfile host="app.diagrams.net" modified="2024-05-10T16:12:30.602Z" agent="Mozilla/5.0 (Macintosh; Intel Mac OS X 10_15_7) AppleWebKit/537.36 (KHTML, like Gecko) Chrome/124.0.0.0 Safari/537.36" etag="GWT9zBH02RB43YqJjlAq" version="24.3.1" type="device">
  <diagram name="Página-1" id="QAWPojsw_Dn3CGXh09Wl">
    <mxGraphModel dx="3033" dy="1223" grid="1" gridSize="10" guides="1" tooltips="1" connect="1" arrows="1" fold="1" page="1" pageScale="1" pageWidth="827" pageHeight="1169" math="0" shadow="0">
      <root>
        <mxCell id="0" />
        <mxCell id="1" parent="0" />
        <mxCell id="1fosazY-0Ihsvni89FrO-5" style="edgeStyle=none;rounded=0;orthogonalLoop=1;jettySize=auto;html=1;strokeColor=default;strokeWidth=2;align=center;verticalAlign=middle;fontFamily=Helvetica;fontSize=11;fontColor=default;labelBackgroundColor=default;endArrow=none;endFill=0;" edge="1" parent="1" source="SrDg6jrOp9V2oyPx1NvB-2" target="SrDg6jrOp9V2oyPx1NvB-6">
          <mxGeometry relative="1" as="geometry" />
        </mxCell>
        <mxCell id="1fosazY-0Ihsvni89FrO-15" style="edgeStyle=none;rounded=0;orthogonalLoop=1;jettySize=auto;html=1;strokeColor=default;strokeWidth=2;align=center;verticalAlign=middle;fontFamily=Helvetica;fontSize=11;fontColor=default;labelBackgroundColor=default;endArrow=none;endFill=0;" edge="1" parent="1" source="SrDg6jrOp9V2oyPx1NvB-2" target="SrDg6jrOp9V2oyPx1NvB-4">
          <mxGeometry relative="1" as="geometry" />
        </mxCell>
        <mxCell id="1fosazY-0Ihsvni89FrO-18" style="edgeStyle=none;rounded=0;orthogonalLoop=1;jettySize=auto;html=1;entryX=1;entryY=1;entryDx=0;entryDy=0;strokeColor=default;strokeWidth=2;align=center;verticalAlign=middle;fontFamily=Helvetica;fontSize=11;fontColor=default;labelBackgroundColor=default;endArrow=none;endFill=0;" edge="1" parent="1" source="SrDg6jrOp9V2oyPx1NvB-2" target="SrDg6jrOp9V2oyPx1NvB-3">
          <mxGeometry relative="1" as="geometry" />
        </mxCell>
        <mxCell id="1fosazY-0Ihsvni89FrO-19" style="edgeStyle=none;rounded=0;orthogonalLoop=1;jettySize=auto;html=1;strokeColor=default;strokeWidth=2;align=center;verticalAlign=middle;fontFamily=Helvetica;fontSize=11;fontColor=default;labelBackgroundColor=default;endArrow=none;endFill=0;" edge="1" parent="1" source="SrDg6jrOp9V2oyPx1NvB-2" target="1fosazY-0Ihsvni89FrO-16">
          <mxGeometry relative="1" as="geometry" />
        </mxCell>
        <mxCell id="1fosazY-0Ihsvni89FrO-20" style="edgeStyle=none;rounded=0;orthogonalLoop=1;jettySize=auto;html=1;strokeColor=default;strokeWidth=2;align=center;verticalAlign=middle;fontFamily=Helvetica;fontSize=11;fontColor=default;labelBackgroundColor=default;endArrow=none;endFill=0;" edge="1" parent="1" source="SrDg6jrOp9V2oyPx1NvB-2" target="1fosazY-0Ihsvni89FrO-17">
          <mxGeometry relative="1" as="geometry" />
        </mxCell>
        <mxCell id="1fosazY-0Ihsvni89FrO-103" style="edgeStyle=none;rounded=0;orthogonalLoop=1;jettySize=auto;html=1;entryX=0;entryY=0.5;entryDx=0;entryDy=0;strokeColor=default;strokeWidth=2;align=center;verticalAlign=middle;fontFamily=Helvetica;fontSize=11;fontColor=default;labelBackgroundColor=default;endArrow=none;endFill=0;exitX=1;exitY=1;exitDx=0;exitDy=0;" edge="1" parent="1" source="SrDg6jrOp9V2oyPx1NvB-2" target="1fosazY-0Ihsvni89FrO-48">
          <mxGeometry relative="1" as="geometry">
            <Array as="points">
              <mxPoint x="280" y="705" />
            </Array>
          </mxGeometry>
        </mxCell>
        <mxCell id="1fosazY-0Ihsvni89FrO-104" style="edgeStyle=none;rounded=0;orthogonalLoop=1;jettySize=auto;html=1;entryX=0;entryY=0.5;entryDx=0;entryDy=0;strokeColor=default;strokeWidth=2;align=center;verticalAlign=middle;fontFamily=Helvetica;fontSize=11;fontColor=default;labelBackgroundColor=default;endArrow=none;endFill=0;exitX=0.75;exitY=1;exitDx=0;exitDy=0;" edge="1" parent="1" source="SrDg6jrOp9V2oyPx1NvB-2" target="1fosazY-0Ihsvni89FrO-24">
          <mxGeometry relative="1" as="geometry">
            <Array as="points">
              <mxPoint x="230" y="860" />
            </Array>
          </mxGeometry>
        </mxCell>
        <mxCell id="1fosazY-0Ihsvni89FrO-105" style="edgeStyle=none;rounded=0;orthogonalLoop=1;jettySize=auto;html=1;entryX=0;entryY=0.5;entryDx=0;entryDy=0;strokeColor=default;strokeWidth=2;align=center;verticalAlign=middle;fontFamily=Helvetica;fontSize=11;fontColor=default;labelBackgroundColor=default;endArrow=none;endFill=0;" edge="1" parent="1" source="SrDg6jrOp9V2oyPx1NvB-2" target="1fosazY-0Ihsvni89FrO-25">
          <mxGeometry relative="1" as="geometry">
            <Array as="points">
              <mxPoint x="180" y="1060" />
            </Array>
          </mxGeometry>
        </mxCell>
        <mxCell id="SrDg6jrOp9V2oyPx1NvB-2" value="&lt;b&gt;&lt;font style=&quot;font-size: 20px;&quot;&gt;Servicios&lt;/font&gt;&lt;/b&gt;" style="rounded=0;whiteSpace=wrap;html=1;fillColor=#ffff88;strokeColor=#36393d;" parent="1" vertex="1">
          <mxGeometry x="80" y="200" width="200" height="40" as="geometry" />
        </mxCell>
        <mxCell id="SrDg6jrOp9V2oyPx1NvB-3" value="fecha" style="ellipse;whiteSpace=wrap;html=1;fillColor=#cce5ff;strokeColor=#36393d;fontSize=14;" parent="1" vertex="1">
          <mxGeometry x="-120" y="120" width="120" height="40" as="geometry" />
        </mxCell>
        <mxCell id="SrDg6jrOp9V2oyPx1NvB-4" value="&lt;u style=&quot;font-size: 14px;&quot;&gt;id_servicio&lt;/u&gt;" style="ellipse;whiteSpace=wrap;html=1;fillColor=#cce5ff;strokeColor=#36393d;fontSize=14;" parent="1" vertex="1">
          <mxGeometry x="120" y="80" width="120" height="40" as="geometry" />
        </mxCell>
        <mxCell id="1fosazY-0Ihsvni89FrO-6" style="edgeStyle=none;rounded=0;orthogonalLoop=1;jettySize=auto;html=1;entryX=0;entryY=0.5;entryDx=0;entryDy=0;strokeColor=default;strokeWidth=2;align=center;verticalAlign=middle;fontFamily=Helvetica;fontSize=11;fontColor=default;labelBackgroundColor=default;endArrow=none;endFill=0;" edge="1" parent="1" source="SrDg6jrOp9V2oyPx1NvB-6" target="1fosazY-0Ihsvni89FrO-3">
          <mxGeometry relative="1" as="geometry" />
        </mxCell>
        <mxCell id="SrDg6jrOp9V2oyPx1NvB-6" value="Relación" style="rhombus;whiteSpace=wrap;html=1;fillColor=#eeeeee;strokeColor=#36393d;" parent="1" vertex="1">
          <mxGeometry x="400" y="180" width="80" height="80" as="geometry" />
        </mxCell>
        <mxCell id="1fosazY-0Ihsvni89FrO-8" style="edgeStyle=none;rounded=0;orthogonalLoop=1;jettySize=auto;html=1;strokeColor=default;strokeWidth=2;align=center;verticalAlign=middle;fontFamily=Helvetica;fontSize=11;fontColor=default;labelBackgroundColor=default;endArrow=none;endFill=0;" edge="1" parent="1" source="1fosazY-0Ihsvni89FrO-3" target="1fosazY-0Ihsvni89FrO-7">
          <mxGeometry relative="1" as="geometry" />
        </mxCell>
        <mxCell id="1fosazY-0Ihsvni89FrO-38" style="edgeStyle=none;rounded=0;orthogonalLoop=1;jettySize=auto;html=1;strokeColor=default;strokeWidth=2;align=center;verticalAlign=middle;fontFamily=Helvetica;fontSize=11;fontColor=default;labelBackgroundColor=default;endArrow=none;endFill=0;" edge="1" parent="1" source="1fosazY-0Ihsvni89FrO-3" target="1fosazY-0Ihsvni89FrO-31">
          <mxGeometry relative="1" as="geometry" />
        </mxCell>
        <mxCell id="1fosazY-0Ihsvni89FrO-39" style="edgeStyle=none;rounded=0;orthogonalLoop=1;jettySize=auto;html=1;strokeColor=default;strokeWidth=2;align=center;verticalAlign=middle;fontFamily=Helvetica;fontSize=11;fontColor=default;labelBackgroundColor=default;endArrow=none;endFill=0;" edge="1" parent="1" source="1fosazY-0Ihsvni89FrO-3" target="1fosazY-0Ihsvni89FrO-32">
          <mxGeometry relative="1" as="geometry" />
        </mxCell>
        <mxCell id="1fosazY-0Ihsvni89FrO-40" style="edgeStyle=none;rounded=0;orthogonalLoop=1;jettySize=auto;html=1;entryX=0.5;entryY=1;entryDx=0;entryDy=0;strokeColor=default;strokeWidth=2;align=center;verticalAlign=middle;fontFamily=Helvetica;fontSize=11;fontColor=default;labelBackgroundColor=default;endArrow=none;endFill=0;" edge="1" parent="1" source="1fosazY-0Ihsvni89FrO-3" target="1fosazY-0Ihsvni89FrO-33">
          <mxGeometry relative="1" as="geometry" />
        </mxCell>
        <mxCell id="1fosazY-0Ihsvni89FrO-43" style="edgeStyle=orthogonalEdgeStyle;rounded=0;orthogonalLoop=1;jettySize=auto;html=1;entryX=0;entryY=0.5;entryDx=0;entryDy=0;strokeColor=default;strokeWidth=2;align=center;verticalAlign=middle;fontFamily=Helvetica;fontSize=11;fontColor=default;labelBackgroundColor=default;endArrow=none;endFill=0;exitX=0.75;exitY=1;exitDx=0;exitDy=0;" edge="1" parent="1" source="1fosazY-0Ihsvni89FrO-3" target="1fosazY-0Ihsvni89FrO-42">
          <mxGeometry relative="1" as="geometry">
            <mxPoint x="750" y="250" as="sourcePoint" />
          </mxGeometry>
        </mxCell>
        <mxCell id="1fosazY-0Ihsvni89FrO-3" value="&lt;b&gt;&lt;font style=&quot;font-size: 20px;&quot;&gt;Coches&lt;/font&gt;&lt;/b&gt;" style="rounded=0;whiteSpace=wrap;html=1;fillColor=#ffff88;strokeColor=#36393d;" vertex="1" parent="1">
          <mxGeometry x="600" y="200" width="200" height="40" as="geometry" />
        </mxCell>
        <mxCell id="1fosazY-0Ihsvni89FrO-56" style="edgeStyle=none;rounded=0;orthogonalLoop=1;jettySize=auto;html=1;entryX=0.5;entryY=1;entryDx=0;entryDy=0;strokeColor=default;strokeWidth=2;align=center;verticalAlign=middle;fontFamily=Helvetica;fontSize=11;fontColor=default;labelBackgroundColor=default;endArrow=none;endFill=0;" edge="1" parent="1" source="1fosazY-0Ihsvni89FrO-4" target="1fosazY-0Ihsvni89FrO-55">
          <mxGeometry relative="1" as="geometry" />
        </mxCell>
        <mxCell id="1fosazY-0Ihsvni89FrO-58" style="edgeStyle=none;rounded=0;orthogonalLoop=1;jettySize=auto;html=1;strokeColor=default;strokeWidth=2;align=center;verticalAlign=middle;fontFamily=Helvetica;fontSize=11;fontColor=default;labelBackgroundColor=default;endArrow=none;endFill=0;" edge="1" parent="1" source="1fosazY-0Ihsvni89FrO-4" target="1fosazY-0Ihsvni89FrO-57">
          <mxGeometry relative="1" as="geometry" />
        </mxCell>
        <mxCell id="1fosazY-0Ihsvni89FrO-61" style="edgeStyle=none;rounded=0;orthogonalLoop=1;jettySize=auto;html=1;entryX=0;entryY=0.5;entryDx=0;entryDy=0;strokeColor=default;strokeWidth=2;align=center;verticalAlign=middle;fontFamily=Helvetica;fontSize=11;fontColor=default;labelBackgroundColor=default;endArrow=none;endFill=0;" edge="1" parent="1" source="1fosazY-0Ihsvni89FrO-4" target="1fosazY-0Ihsvni89FrO-59">
          <mxGeometry relative="1" as="geometry" />
        </mxCell>
        <mxCell id="1fosazY-0Ihsvni89FrO-108" style="edgeStyle=none;rounded=0;orthogonalLoop=1;jettySize=auto;html=1;entryX=0;entryY=0.5;entryDx=0;entryDy=0;strokeColor=default;strokeWidth=2;align=center;verticalAlign=middle;fontFamily=Helvetica;fontSize=11;fontColor=default;labelBackgroundColor=default;endArrow=none;endFill=0;" edge="1" parent="1" source="1fosazY-0Ihsvni89FrO-4" target="1fosazY-0Ihsvni89FrO-107">
          <mxGeometry relative="1" as="geometry" />
        </mxCell>
        <mxCell id="1fosazY-0Ihsvni89FrO-4" value="&lt;b&gt;&lt;font style=&quot;font-size: 20px;&quot;&gt;Clientes&lt;/font&gt;&lt;/b&gt;" style="rounded=0;whiteSpace=wrap;html=1;fillColor=#ffff88;strokeColor=#36393d;" vertex="1" parent="1">
          <mxGeometry x="1130" y="200" width="200" height="40" as="geometry" />
        </mxCell>
        <mxCell id="1fosazY-0Ihsvni89FrO-9" style="edgeStyle=none;rounded=0;orthogonalLoop=1;jettySize=auto;html=1;entryX=0;entryY=0.5;entryDx=0;entryDy=0;strokeColor=default;strokeWidth=2;align=center;verticalAlign=middle;fontFamily=Helvetica;fontSize=11;fontColor=default;labelBackgroundColor=default;endArrow=none;endFill=0;" edge="1" parent="1" source="1fosazY-0Ihsvni89FrO-7" target="1fosazY-0Ihsvni89FrO-4">
          <mxGeometry relative="1" as="geometry" />
        </mxCell>
        <mxCell id="1fosazY-0Ihsvni89FrO-7" value="Relación" style="rhombus;whiteSpace=wrap;html=1;fillColor=#eeeeee;strokeColor=#36393d;" vertex="1" parent="1">
          <mxGeometry x="920" y="180" width="80" height="80" as="geometry" />
        </mxCell>
        <mxCell id="1fosazY-0Ihsvni89FrO-10" value="&lt;font size=&quot;1&quot; style=&quot;&quot;&gt;&lt;b style=&quot;font-size: 20px;&quot;&gt;n&lt;/b&gt;&lt;/font&gt;" style="text;html=1;align=center;verticalAlign=middle;resizable=0;points=[];autosize=1;strokeColor=none;fillColor=none;fontFamily=Helvetica;fontSize=11;fontColor=default;labelBackgroundColor=default;" vertex="1" parent="1">
          <mxGeometry x="280" y="180" width="40" height="40" as="geometry" />
        </mxCell>
        <mxCell id="1fosazY-0Ihsvni89FrO-11" value="&lt;font size=&quot;1&quot; style=&quot;&quot;&gt;&lt;b style=&quot;font-size: 20px;&quot;&gt;1&lt;/b&gt;&lt;/font&gt;" style="text;html=1;align=center;verticalAlign=middle;resizable=0;points=[];autosize=1;strokeColor=none;fillColor=none;fontFamily=Helvetica;fontSize=11;fontColor=default;labelBackgroundColor=default;" vertex="1" parent="1">
          <mxGeometry x="565" y="220" width="30" height="40" as="geometry" />
        </mxCell>
        <mxCell id="1fosazY-0Ihsvni89FrO-12" value="&lt;font size=&quot;1&quot; style=&quot;&quot;&gt;&lt;b style=&quot;font-size: 20px;&quot;&gt;n&lt;/b&gt;&lt;/font&gt;" style="text;html=1;align=center;verticalAlign=middle;resizable=0;points=[];autosize=1;strokeColor=none;fillColor=none;fontFamily=Helvetica;fontSize=11;fontColor=default;labelBackgroundColor=default;" vertex="1" parent="1">
          <mxGeometry x="800" y="180" width="40" height="40" as="geometry" />
        </mxCell>
        <mxCell id="1fosazY-0Ihsvni89FrO-14" value="&lt;font size=&quot;1&quot; style=&quot;&quot;&gt;&lt;b style=&quot;font-size: 20px;&quot;&gt;1&lt;/b&gt;&lt;/font&gt;" style="text;html=1;align=center;verticalAlign=middle;resizable=0;points=[];autosize=1;strokeColor=none;fillColor=none;fontFamily=Helvetica;fontSize=11;fontColor=default;labelBackgroundColor=default;" vertex="1" parent="1">
          <mxGeometry x="1095" y="220" width="30" height="40" as="geometry" />
        </mxCell>
        <mxCell id="1fosazY-0Ihsvni89FrO-16" value="descripcion" style="ellipse;whiteSpace=wrap;html=1;fillColor=#cce5ff;strokeColor=#36393d;fontSize=14;" vertex="1" parent="1">
          <mxGeometry x="-120" y="200" width="120" height="40" as="geometry" />
        </mxCell>
        <mxCell id="1fosazY-0Ihsvni89FrO-17" value="costo" style="ellipse;whiteSpace=wrap;html=1;fillColor=#cce5ff;strokeColor=#36393d;fontSize=14;" vertex="1" parent="1">
          <mxGeometry x="-120" y="280" width="120" height="40" as="geometry" />
        </mxCell>
        <mxCell id="1fosazY-0Ihsvni89FrO-83" style="edgeStyle=none;rounded=0;orthogonalLoop=1;jettySize=auto;html=1;entryX=0;entryY=1;entryDx=0;entryDy=0;strokeColor=default;strokeWidth=2;align=center;verticalAlign=middle;fontFamily=Helvetica;fontSize=11;fontColor=default;labelBackgroundColor=default;endArrow=none;endFill=0;" edge="1" parent="1" source="1fosazY-0Ihsvni89FrO-21" target="1fosazY-0Ihsvni89FrO-81">
          <mxGeometry relative="1" as="geometry" />
        </mxCell>
        <mxCell id="1fosazY-0Ihsvni89FrO-91" style="edgeStyle=none;rounded=0;orthogonalLoop=1;jettySize=auto;html=1;strokeColor=default;strokeWidth=2;align=center;verticalAlign=middle;fontFamily=Helvetica;fontSize=11;fontColor=default;labelBackgroundColor=default;endArrow=none;endFill=0;" edge="1" parent="1" source="1fosazY-0Ihsvni89FrO-21" target="1fosazY-0Ihsvni89FrO-82">
          <mxGeometry relative="1" as="geometry" />
        </mxCell>
        <mxCell id="1fosazY-0Ihsvni89FrO-21" value="&lt;span style=&quot;font-size: 20px;&quot;&gt;&lt;b&gt;Tipo_servicio&lt;/b&gt;&lt;/span&gt;" style="rounded=0;whiteSpace=wrap;html=1;fillColor=#ffff88;strokeColor=#36393d;" vertex="1" parent="1">
          <mxGeometry x="600" y="840" width="200" height="40" as="geometry" />
        </mxCell>
        <mxCell id="1fosazY-0Ihsvni89FrO-88" style="edgeStyle=none;rounded=0;orthogonalLoop=1;jettySize=auto;html=1;strokeColor=default;strokeWidth=2;align=center;verticalAlign=middle;fontFamily=Helvetica;fontSize=11;fontColor=default;labelBackgroundColor=default;endArrow=none;endFill=0;" edge="1" parent="1" source="1fosazY-0Ihsvni89FrO-22" target="1fosazY-0Ihsvni89FrO-85">
          <mxGeometry relative="1" as="geometry" />
        </mxCell>
        <mxCell id="1fosazY-0Ihsvni89FrO-90" style="edgeStyle=none;rounded=0;orthogonalLoop=1;jettySize=auto;html=1;strokeColor=default;strokeWidth=2;align=center;verticalAlign=middle;fontFamily=Helvetica;fontSize=11;fontColor=default;labelBackgroundColor=default;endArrow=none;endFill=0;" edge="1" parent="1" source="1fosazY-0Ihsvni89FrO-22" target="1fosazY-0Ihsvni89FrO-87">
          <mxGeometry relative="1" as="geometry" />
        </mxCell>
        <mxCell id="1fosazY-0Ihsvni89FrO-22" value="&lt;span style=&quot;font-size: 20px;&quot;&gt;&lt;b&gt;Tipo_pago&lt;/b&gt;&lt;/span&gt;" style="rounded=0;whiteSpace=wrap;html=1;fillColor=#ffff88;strokeColor=#36393d;" vertex="1" parent="1">
          <mxGeometry x="600" y="1040" width="200" height="40" as="geometry" />
        </mxCell>
        <mxCell id="1fosazY-0Ihsvni89FrO-28" style="edgeStyle=none;rounded=0;orthogonalLoop=1;jettySize=auto;html=1;strokeColor=default;strokeWidth=2;align=center;verticalAlign=middle;fontFamily=Helvetica;fontSize=11;fontColor=default;labelBackgroundColor=default;endArrow=none;endFill=0;" edge="1" parent="1" source="1fosazY-0Ihsvni89FrO-24" target="1fosazY-0Ihsvni89FrO-21">
          <mxGeometry relative="1" as="geometry" />
        </mxCell>
        <mxCell id="1fosazY-0Ihsvni89FrO-24" value="Relación" style="rhombus;whiteSpace=wrap;html=1;fillColor=#eeeeee;strokeColor=#36393d;" vertex="1" parent="1">
          <mxGeometry x="400" y="820" width="80" height="80" as="geometry" />
        </mxCell>
        <mxCell id="1fosazY-0Ihsvni89FrO-30" style="edgeStyle=none;rounded=0;orthogonalLoop=1;jettySize=auto;html=1;strokeColor=default;strokeWidth=2;align=center;verticalAlign=middle;fontFamily=Helvetica;fontSize=11;fontColor=default;labelBackgroundColor=default;endArrow=none;endFill=0;" edge="1" parent="1" source="1fosazY-0Ihsvni89FrO-25" target="1fosazY-0Ihsvni89FrO-22">
          <mxGeometry relative="1" as="geometry" />
        </mxCell>
        <mxCell id="1fosazY-0Ihsvni89FrO-25" value="Relación" style="rhombus;whiteSpace=wrap;html=1;fillColor=#eeeeee;strokeColor=#36393d;" vertex="1" parent="1">
          <mxGeometry x="400" y="1020" width="80" height="80" as="geometry" />
        </mxCell>
        <mxCell id="1fosazY-0Ihsvni89FrO-31" value="&lt;u style=&quot;font-size: 14px;&quot;&gt;id_coche&lt;/u&gt;" style="ellipse;whiteSpace=wrap;html=1;fillColor=#cce5ff;strokeColor=#36393d;fontSize=14;" vertex="1" parent="1">
          <mxGeometry x="480" y="40" width="120" height="40" as="geometry" />
        </mxCell>
        <mxCell id="1fosazY-0Ihsvni89FrO-32" value="matricula" style="ellipse;whiteSpace=wrap;html=1;fillColor=#cce5ff;strokeColor=#36393d;fontSize=14;" vertex="1" parent="1">
          <mxGeometry x="640" y="40" width="120" height="40" as="geometry" />
        </mxCell>
        <mxCell id="1fosazY-0Ihsvni89FrO-33" value="modelo" style="ellipse;whiteSpace=wrap;html=1;fillColor=#cce5ff;strokeColor=#36393d;fontSize=14;" vertex="1" parent="1">
          <mxGeometry x="800" y="40" width="120" height="40" as="geometry" />
        </mxCell>
        <mxCell id="1fosazY-0Ihsvni89FrO-75" style="edgeStyle=none;rounded=0;orthogonalLoop=1;jettySize=auto;html=1;strokeColor=default;strokeWidth=2;align=center;verticalAlign=middle;fontFamily=Helvetica;fontSize=11;fontColor=default;labelBackgroundColor=default;endArrow=none;endFill=0;" edge="1" parent="1" source="1fosazY-0Ihsvni89FrO-37" target="1fosazY-0Ihsvni89FrO-73">
          <mxGeometry relative="1" as="geometry" />
        </mxCell>
        <mxCell id="1fosazY-0Ihsvni89FrO-76" style="edgeStyle=none;rounded=0;orthogonalLoop=1;jettySize=auto;html=1;strokeColor=default;strokeWidth=2;align=center;verticalAlign=middle;fontFamily=Helvetica;fontSize=11;fontColor=default;labelBackgroundColor=default;endArrow=none;endFill=0;" edge="1" parent="1" source="1fosazY-0Ihsvni89FrO-37" target="1fosazY-0Ihsvni89FrO-74">
          <mxGeometry relative="1" as="geometry" />
        </mxCell>
        <mxCell id="1fosazY-0Ihsvni89FrO-37" value="&lt;b&gt;&lt;font style=&quot;font-size: 20px;&quot;&gt;Marca&lt;/font&gt;&lt;/b&gt;" style="rounded=0;whiteSpace=wrap;html=1;fillColor=#ffff88;strokeColor=#36393d;" vertex="1" parent="1">
          <mxGeometry x="1130" y="350" width="200" height="40" as="geometry" />
        </mxCell>
        <mxCell id="1fosazY-0Ihsvni89FrO-44" style="edgeStyle=none;rounded=0;orthogonalLoop=1;jettySize=auto;html=1;strokeColor=default;strokeWidth=2;align=center;verticalAlign=middle;fontFamily=Helvetica;fontSize=11;fontColor=default;labelBackgroundColor=default;endArrow=none;endFill=0;" edge="1" parent="1" source="1fosazY-0Ihsvni89FrO-42" target="1fosazY-0Ihsvni89FrO-37">
          <mxGeometry relative="1" as="geometry" />
        </mxCell>
        <mxCell id="1fosazY-0Ihsvni89FrO-42" value="Tiene" style="rhombus;whiteSpace=wrap;html=1;fillColor=#eeeeee;strokeColor=#36393d;" vertex="1" parent="1">
          <mxGeometry x="920" y="330" width="80" height="80" as="geometry" />
        </mxCell>
        <mxCell id="1fosazY-0Ihsvni89FrO-45" value="&lt;font size=&quot;1&quot; style=&quot;&quot;&gt;&lt;b style=&quot;font-size: 20px;&quot;&gt;n&lt;/b&gt;&lt;/font&gt;" style="text;html=1;align=center;verticalAlign=middle;resizable=0;points=[];autosize=1;strokeColor=none;fillColor=none;fontFamily=Helvetica;fontSize=11;fontColor=default;labelBackgroundColor=default;" vertex="1" parent="1">
          <mxGeometry x="760" y="237" width="40" height="40" as="geometry" />
        </mxCell>
        <mxCell id="1fosazY-0Ihsvni89FrO-46" value="&lt;font size=&quot;1&quot; style=&quot;&quot;&gt;&lt;b style=&quot;font-size: 20px;&quot;&gt;1&lt;/b&gt;&lt;/font&gt;" style="text;html=1;align=center;verticalAlign=middle;resizable=0;points=[];autosize=1;strokeColor=none;fillColor=none;fontFamily=Helvetica;fontSize=11;fontColor=default;labelBackgroundColor=default;" vertex="1" parent="1">
          <mxGeometry x="1100" y="370" width="30" height="40" as="geometry" />
        </mxCell>
        <mxCell id="1fosazY-0Ihsvni89FrO-79" style="edgeStyle=none;rounded=0;orthogonalLoop=1;jettySize=auto;html=1;strokeColor=default;strokeWidth=2;align=center;verticalAlign=middle;fontFamily=Helvetica;fontSize=11;fontColor=default;labelBackgroundColor=default;endArrow=none;endFill=0;" edge="1" parent="1" source="1fosazY-0Ihsvni89FrO-47" target="1fosazY-0Ihsvni89FrO-77">
          <mxGeometry relative="1" as="geometry" />
        </mxCell>
        <mxCell id="1fosazY-0Ihsvni89FrO-80" style="edgeStyle=none;rounded=0;orthogonalLoop=1;jettySize=auto;html=1;strokeColor=default;strokeWidth=2;align=center;verticalAlign=middle;fontFamily=Helvetica;fontSize=11;fontColor=default;labelBackgroundColor=default;endArrow=none;endFill=0;" edge="1" parent="1" source="1fosazY-0Ihsvni89FrO-47" target="1fosazY-0Ihsvni89FrO-78">
          <mxGeometry relative="1" as="geometry" />
        </mxCell>
        <mxCell id="1fosazY-0Ihsvni89FrO-47" value="&lt;b&gt;&lt;font style=&quot;font-size: 20px;&quot;&gt;Estado&lt;/font&gt;&lt;/b&gt;" style="rounded=0;whiteSpace=wrap;html=1;fillColor=#ffff88;strokeColor=#36393d;" vertex="1" parent="1">
          <mxGeometry x="1135" y="665" width="200" height="40" as="geometry" />
        </mxCell>
        <mxCell id="1fosazY-0Ihsvni89FrO-52" style="edgeStyle=none;rounded=0;orthogonalLoop=1;jettySize=auto;html=1;exitX=1;exitY=0.5;exitDx=0;exitDy=0;entryX=0;entryY=1;entryDx=0;entryDy=0;strokeColor=default;strokeWidth=2;align=center;verticalAlign=middle;fontFamily=Helvetica;fontSize=11;fontColor=default;labelBackgroundColor=default;endArrow=none;endFill=0;" edge="1" parent="1" source="1fosazY-0Ihsvni89FrO-48" target="1fosazY-0Ihsvni89FrO-47">
          <mxGeometry relative="1" as="geometry" />
        </mxCell>
        <mxCell id="1fosazY-0Ihsvni89FrO-48" value="Tiene" style="rhombus;whiteSpace=wrap;html=1;fillColor=#eeeeee;strokeColor=#36393d;" vertex="1" parent="1">
          <mxGeometry x="920" y="665" width="80" height="80" as="geometry" />
        </mxCell>
        <mxCell id="1fosazY-0Ihsvni89FrO-53" style="edgeStyle=none;rounded=0;orthogonalLoop=1;jettySize=auto;html=1;entryX=0;entryY=0;entryDx=0;entryDy=0;strokeColor=default;strokeWidth=2;align=center;verticalAlign=middle;fontFamily=Helvetica;fontSize=11;fontColor=default;labelBackgroundColor=default;endArrow=none;endFill=0;exitX=1;exitY=0.5;exitDx=0;exitDy=0;" edge="1" parent="1" source="1fosazY-0Ihsvni89FrO-49" target="1fosazY-0Ihsvni89FrO-47">
          <mxGeometry relative="1" as="geometry" />
        </mxCell>
        <mxCell id="1fosazY-0Ihsvni89FrO-54" style="edgeStyle=orthogonalEdgeStyle;rounded=0;orthogonalLoop=1;jettySize=auto;html=1;entryX=0.5;entryY=1;entryDx=0;entryDy=0;strokeColor=default;strokeWidth=2;align=center;verticalAlign=middle;fontFamily=Helvetica;fontSize=11;fontColor=default;labelBackgroundColor=default;endArrow=none;endFill=0;exitX=0;exitY=0.5;exitDx=0;exitDy=0;" edge="1" parent="1" source="1fosazY-0Ihsvni89FrO-49" target="1fosazY-0Ihsvni89FrO-3">
          <mxGeometry relative="1" as="geometry" />
        </mxCell>
        <mxCell id="1fosazY-0Ihsvni89FrO-49" value="Tiene" style="rhombus;whiteSpace=wrap;html=1;fillColor=#eeeeee;strokeColor=#36393d;" vertex="1" parent="1">
          <mxGeometry x="920" y="500" width="80" height="80" as="geometry" />
        </mxCell>
        <mxCell id="1fosazY-0Ihsvni89FrO-55" value="&lt;u style=&quot;font-size: 14px;&quot;&gt;id_cliente&lt;/u&gt;" style="ellipse;whiteSpace=wrap;html=1;fillColor=#cce5ff;strokeColor=#36393d;fontSize=14;" vertex="1" parent="1">
          <mxGeometry x="1170" y="40" width="120" height="40" as="geometry" />
        </mxCell>
        <mxCell id="1fosazY-0Ihsvni89FrO-57" value="direccion" style="ellipse;whiteSpace=wrap;html=1;fillColor=#cce5ff;strokeColor=#36393d;fontSize=14;" vertex="1" parent="1">
          <mxGeometry x="1360" y="40" width="120" height="40" as="geometry" />
        </mxCell>
        <mxCell id="1fosazY-0Ihsvni89FrO-66" style="edgeStyle=none;rounded=0;orthogonalLoop=1;jettySize=auto;html=1;strokeColor=default;strokeWidth=2;align=center;verticalAlign=middle;fontFamily=Helvetica;fontSize=11;fontColor=default;labelBackgroundColor=default;endArrow=none;endFill=0;" edge="1" parent="1" source="1fosazY-0Ihsvni89FrO-59" target="1fosazY-0Ihsvni89FrO-62">
          <mxGeometry relative="1" as="geometry" />
        </mxCell>
        <mxCell id="1fosazY-0Ihsvni89FrO-67" style="edgeStyle=none;rounded=0;orthogonalLoop=1;jettySize=auto;html=1;strokeColor=default;strokeWidth=2;align=center;verticalAlign=middle;fontFamily=Helvetica;fontSize=11;fontColor=default;labelBackgroundColor=default;endArrow=none;endFill=0;" edge="1" parent="1" source="1fosazY-0Ihsvni89FrO-59" target="1fosazY-0Ihsvni89FrO-63">
          <mxGeometry relative="1" as="geometry" />
        </mxCell>
        <mxCell id="1fosazY-0Ihsvni89FrO-68" style="edgeStyle=none;rounded=0;orthogonalLoop=1;jettySize=auto;html=1;strokeColor=default;strokeWidth=2;align=center;verticalAlign=middle;fontFamily=Helvetica;fontSize=11;fontColor=default;labelBackgroundColor=default;endArrow=none;endFill=0;" edge="1" parent="1" source="1fosazY-0Ihsvni89FrO-59" target="1fosazY-0Ihsvni89FrO-64">
          <mxGeometry relative="1" as="geometry" />
        </mxCell>
        <mxCell id="1fosazY-0Ihsvni89FrO-69" style="edgeStyle=none;rounded=0;orthogonalLoop=1;jettySize=auto;html=1;strokeColor=default;strokeWidth=2;align=center;verticalAlign=middle;fontFamily=Helvetica;fontSize=11;fontColor=default;labelBackgroundColor=default;endArrow=none;endFill=0;" edge="1" parent="1" source="1fosazY-0Ihsvni89FrO-59" target="1fosazY-0Ihsvni89FrO-65">
          <mxGeometry relative="1" as="geometry" />
        </mxCell>
        <mxCell id="1fosazY-0Ihsvni89FrO-59" value="nombre" style="ellipse;whiteSpace=wrap;html=1;fillColor=#cce5ff;strokeColor=#36393d;fontSize=14;" vertex="1" parent="1">
          <mxGeometry x="1440" y="200" width="120" height="40" as="geometry" />
        </mxCell>
        <mxCell id="1fosazY-0Ihsvni89FrO-62" value="primer_nombre" style="ellipse;whiteSpace=wrap;html=1;fillColor=#cce5ff;strokeColor=#36393d;fontSize=14;" vertex="1" parent="1">
          <mxGeometry x="1640" y="90" width="120" height="40" as="geometry" />
        </mxCell>
        <mxCell id="1fosazY-0Ihsvni89FrO-63" value="segundo_nombre" style="ellipse;whiteSpace=wrap;html=1;fillColor=#cce5ff;strokeColor=#36393d;fontSize=14;" vertex="1" parent="1">
          <mxGeometry x="1640" y="160" width="120" height="40" as="geometry" />
        </mxCell>
        <mxCell id="1fosazY-0Ihsvni89FrO-64" value="primer_apellido" style="ellipse;whiteSpace=wrap;html=1;fillColor=#cce5ff;strokeColor=#36393d;fontSize=14;" vertex="1" parent="1">
          <mxGeometry x="1640" y="240" width="120" height="40" as="geometry" />
        </mxCell>
        <mxCell id="1fosazY-0Ihsvni89FrO-65" value="segundo_apellido" style="ellipse;whiteSpace=wrap;html=1;fillColor=#cce5ff;strokeColor=#36393d;fontSize=14;" vertex="1" parent="1">
          <mxGeometry x="1640" y="320" width="120" height="40" as="geometry" />
        </mxCell>
        <mxCell id="1fosazY-0Ihsvni89FrO-73" value="&lt;u style=&quot;font-size: 14px;&quot;&gt;id_marca&lt;/u&gt;" style="ellipse;whiteSpace=wrap;html=1;fillColor=#cce5ff;strokeColor=#36393d;fontSize=14;" vertex="1" parent="1">
          <mxGeometry x="1110" y="480" width="120" height="40" as="geometry" />
        </mxCell>
        <mxCell id="1fosazY-0Ihsvni89FrO-74" value="nombre" style="ellipse;whiteSpace=wrap;html=1;fillColor=#cce5ff;strokeColor=#36393d;fontSize=14;" vertex="1" parent="1">
          <mxGeometry x="1280" y="480" width="120" height="40" as="geometry" />
        </mxCell>
        <mxCell id="1fosazY-0Ihsvni89FrO-77" value="&lt;u style=&quot;font-size: 14px;&quot;&gt;id_estado&lt;/u&gt;" style="ellipse;whiteSpace=wrap;html=1;fillColor=#cce5ff;strokeColor=#36393d;fontSize=14;" vertex="1" parent="1">
          <mxGeometry x="1450" y="585" width="120" height="40" as="geometry" />
        </mxCell>
        <mxCell id="1fosazY-0Ihsvni89FrO-78" value="descripcion" style="ellipse;whiteSpace=wrap;html=1;fillColor=#cce5ff;strokeColor=#36393d;fontSize=14;" vertex="1" parent="1">
          <mxGeometry x="1450" y="745" width="120" height="40" as="geometry" />
        </mxCell>
        <mxCell id="1fosazY-0Ihsvni89FrO-81" value="&lt;u style=&quot;font-size: 14px;&quot;&gt;id_tipo_servicio&lt;/u&gt;" style="ellipse;whiteSpace=wrap;html=1;fillColor=#cce5ff;strokeColor=#36393d;fontSize=14;" vertex="1" parent="1">
          <mxGeometry x="880" y="800" width="120" height="40" as="geometry" />
        </mxCell>
        <mxCell id="1fosazY-0Ihsvni89FrO-82" value="tipo" style="ellipse;whiteSpace=wrap;html=1;fillColor=#cce5ff;strokeColor=#36393d;fontSize=14;" vertex="1" parent="1">
          <mxGeometry x="880" y="880" width="120" height="40" as="geometry" />
        </mxCell>
        <mxCell id="1fosazY-0Ihsvni89FrO-85" value="&lt;u&gt;id_tipo_pago&lt;/u&gt;" style="ellipse;whiteSpace=wrap;html=1;fillColor=#cce5ff;strokeColor=#36393d;fontSize=14;" vertex="1" parent="1">
          <mxGeometry x="880" y="1000" width="120" height="40" as="geometry" />
        </mxCell>
        <mxCell id="1fosazY-0Ihsvni89FrO-87" value="tipo_pago" style="ellipse;whiteSpace=wrap;html=1;fillColor=#cce5ff;strokeColor=#36393d;fontSize=14;" vertex="1" parent="1">
          <mxGeometry x="880" y="1080" width="120" height="40" as="geometry" />
        </mxCell>
        <mxCell id="1fosazY-0Ihsvni89FrO-92" value="&lt;font size=&quot;1&quot; style=&quot;&quot;&gt;&lt;b style=&quot;font-size: 20px;&quot;&gt;n&lt;/b&gt;&lt;/font&gt;" style="text;html=1;align=center;verticalAlign=middle;resizable=0;points=[];autosize=1;strokeColor=none;fillColor=none;fontFamily=Helvetica;fontSize=11;fontColor=default;labelBackgroundColor=default;" vertex="1" parent="1">
          <mxGeometry x="280" y="237" width="40" height="40" as="geometry" />
        </mxCell>
        <mxCell id="1fosazY-0Ihsvni89FrO-93" value="&lt;font size=&quot;1&quot; style=&quot;&quot;&gt;&lt;b style=&quot;font-size: 20px;&quot;&gt;n&lt;/b&gt;&lt;/font&gt;" style="text;html=1;align=center;verticalAlign=middle;resizable=0;points=[];autosize=1;strokeColor=none;fillColor=none;fontFamily=Helvetica;fontSize=11;fontColor=default;labelBackgroundColor=default;" vertex="1" parent="1">
          <mxGeometry x="230" y="237" width="40" height="40" as="geometry" />
        </mxCell>
        <mxCell id="1fosazY-0Ihsvni89FrO-94" value="&lt;font size=&quot;1&quot; style=&quot;&quot;&gt;&lt;b style=&quot;font-size: 20px;&quot;&gt;n&lt;/b&gt;&lt;/font&gt;" style="text;html=1;align=center;verticalAlign=middle;resizable=0;points=[];autosize=1;strokeColor=none;fillColor=none;fontFamily=Helvetica;fontSize=11;fontColor=default;labelBackgroundColor=default;" vertex="1" parent="1">
          <mxGeometry x="172" y="237" width="40" height="40" as="geometry" />
        </mxCell>
        <mxCell id="1fosazY-0Ihsvni89FrO-95" value="&lt;font size=&quot;1&quot; style=&quot;&quot;&gt;&lt;b style=&quot;font-size: 20px;&quot;&gt;1&lt;/b&gt;&lt;/font&gt;" style="text;html=1;align=center;verticalAlign=middle;resizable=0;points=[];autosize=1;strokeColor=none;fillColor=none;fontFamily=Helvetica;fontSize=11;fontColor=default;labelBackgroundColor=default;" vertex="1" parent="1">
          <mxGeometry x="570" y="860" width="30" height="40" as="geometry" />
        </mxCell>
        <mxCell id="1fosazY-0Ihsvni89FrO-96" value="&lt;font size=&quot;1&quot; style=&quot;&quot;&gt;&lt;b style=&quot;font-size: 20px;&quot;&gt;1&lt;/b&gt;&lt;/font&gt;" style="text;html=1;align=center;verticalAlign=middle;resizable=0;points=[];autosize=1;strokeColor=none;fillColor=none;fontFamily=Helvetica;fontSize=11;fontColor=default;labelBackgroundColor=default;" vertex="1" parent="1">
          <mxGeometry x="570" y="1060" width="30" height="40" as="geometry" />
        </mxCell>
        <mxCell id="1fosazY-0Ihsvni89FrO-97" value="&lt;font size=&quot;1&quot; style=&quot;&quot;&gt;&lt;b style=&quot;font-size: 20px;&quot;&gt;1&lt;/b&gt;&lt;/font&gt;" style="text;html=1;align=center;verticalAlign=middle;resizable=0;points=[];autosize=1;strokeColor=none;fillColor=none;fontFamily=Helvetica;fontSize=11;fontColor=default;labelBackgroundColor=default;" vertex="1" parent="1">
          <mxGeometry x="1135" y="705" width="30" height="40" as="geometry" />
        </mxCell>
        <mxCell id="1fosazY-0Ihsvni89FrO-98" value="&lt;font size=&quot;1&quot; style=&quot;&quot;&gt;&lt;b style=&quot;font-size: 20px;&quot;&gt;1&lt;/b&gt;&lt;/font&gt;" style="text;html=1;align=center;verticalAlign=middle;resizable=0;points=[];autosize=1;strokeColor=none;fillColor=none;fontFamily=Helvetica;fontSize=11;fontColor=default;labelBackgroundColor=default;" vertex="1" parent="1">
          <mxGeometry x="1105" y="655" width="30" height="40" as="geometry" />
        </mxCell>
        <mxCell id="1fosazY-0Ihsvni89FrO-107" value="nombre" style="ellipse;whiteSpace=wrap;html=1;fillColor=#cce5ff;strokeColor=#36393d;fontSize=14;" vertex="1" parent="1">
          <mxGeometry x="1425" y="300" width="150" height="60" as="geometry" />
        </mxCell>
        <mxCell id="1fosazY-0Ihsvni89FrO-106" value="Telefono" style="ellipse;whiteSpace=wrap;html=1;fillColor=#cce5ff;strokeColor=#36393d;fontSize=14;" vertex="1" parent="1">
          <mxGeometry x="1440" y="310" width="120" height="40" as="geometry" />
        </mxCell>
      </root>
    </mxGraphModel>
  </diagram>
</mxfile>
